@startuml
class MyGame.GameObject.Items.Equipment.MagneticRepulsor {
- double magneticRepulsorTimer
- ItemRarity itemRarity
+ String getName()
+ String getDescription()
+ void applyBuff(World)
+ void updateEffect(double,World,Player)
+ ItemRarity getItemRarity()
+ void setItemRarity(ItemRarity)
}


class MyGame.GameObject.Weapon.Cores.VectorCore {
+ String[] getWeaponStat()
+ void coreUpgrade(World,double)
+ void applyCoreEffect(Weapon,double)
+ void playerAttack(World)
+ String getName()
}

class MyGame.GameObject.Projectile.Explosion {
- double MAX_TIMER
- double timer
+ void draw(javafx.scene.canvas.GraphicsContext,double,double,double,double,double,GameEngine)
+ void update(double)
+ boolean isFade()
+ double opacity()
+ double getRadius()
+ double getPosX()
+ void setPosX(double)
+ double getPosY()
+ void setPosY(double)
+ double getTimer()
+ void setTimer(double)
+ double getMAX_TIMER()
}


enum MyGame.GameObject.Weapon.WeaponType {
+  SWORD
+  BOOMERANG
+  BOW
+  ROCKS
+  AURA
+  LIGHTNING
+  REGEN
+  LIFESTEAL
+  CHOAS
+  COIN
+  EXP
+  STAMINA
+  LUCK
+  PROJCOUNT
+  SIZE
+  COOLDOWN
+  CRITDMG
+  DAMAGE
+  ATKSPEED
+  CRITRATE
+  OVERHEAL
+  HEALTH
+  MOVEMENTSPD
}

class MyGame.GameObject.Items.Equipment.NecroticHeart {
- ItemRarity itemRarity
+ String getName()
+ String getDescription()
+ void applyBuff(World)
+ void updateEffect(double,World,Player)
+ ItemRarity getItemRarity()
+ void setItemRarity(ItemRarity)
}


class MyGame.GameObject.Skill.Ultimate {
- double ultimateTimer
+ void updateSkill(double,World)
+ boolean isFinished()
+ void draw(javafx.scene.canvas.GraphicsContext,double,double,double,double,double,GameEngine)
+ double getUltimateTimer()
+ void setUltimateTimer(double)
}


class MyGame.GameObject.Items.Equipment.DeepestVoid {
- ItemRarity itemRarity
+ String getName()
+ String getDescription()
+ void applyBuff(World)
+ void updateEffect(double,World,Player)
+ ItemRarity getItemRarity()
+ void setItemRarity(ItemRarity)
}


class MyGame.GameObject.Enemies.CompareEnemies {
- GameObject object_1
- List<Enemy> object_2
- Comparator<GameObject> objectComparator
+ void useComparator(List<Enemy>)
+ List<Enemy> getObject_2()
+ void setObject_2(List<Enemy>)
}


class MyGame.GameObject.Enemies.Enemy {
# Player player
# double speed
# double faceToX
# double faceToY
# double directionX
# double directionY
# double damageTimer
# double knockBackTimer
# double health
# double maxHealth
# double knockBackVelocityX
# double knockBackVelocityY
# boolean isCharger
# boolean isBoss
- int currentFrame
- double animationTimer
- int animationState
# double flashTimer
+ void doDamage(Player,double)
+ void takeDamageAndEffectPlayer(Player,double,List<DamageText>,boolean)
+ boolean isDead()
+ void smoothHitboxContactPushOut(double,double,double)
+ void updateKnockBack(double)
+ void update(double)
+ void updateAnimation(double)
+ void draw(javafx.scene.canvas.GraphicsContext,double,double,double,double,double,GameEngine)
# void pushObject(GameObject,double,double)
+ void addMaxHealth(double)
+ Player getPlayer()
+ double getSpeed()
+ double getTimer()
+ void setTimer(double)
+ double getHealth()
+ void setHealth(double)
+ double getFaceToY()
+ void setFaceToY(double)
+ double getFaceToX()
+ void setFaceToX(double)
+ void setPlayer(Player)
+ void setSpeed(double)
+ double getDamageTimer()
+ void setDamageTimer(double)
+ double getKnockBackTimer()
+ void setKnockBackTimer(double)
+ double getKnockBackVelocityX()
+ void setKnockBackVelocityX(double)
+ double getKnockBackVelocityY()
+ void setKnockBackVelocityY(double)
+ boolean isCharger()
+ void setCharger(boolean)
+ double getDirectionX()
+ void setDirectionX(double)
+ double getDirectionY()
+ void setDirectionY(double)
+ double getMaxHealth()
+ void setMaxHealth(double)
+ boolean isBoss()
+ void setBoss(boolean)
+ int getCurrentFrame()
+ void setCurrentFrame(int)
+ double getAnimationTimer()
+ void setAnimationTimer(double)
+ int getAnimationState()
+ void setAnimationState(int)
+ double getFlashTimer()
+ void setFlashTimer(double)
}


class MyGame.GameObject.Enemies.Charger {
+ void update(double)
+ void draw(javafx.scene.canvas.GraphicsContext,double,double,double,double,double,GameEngine)
+ boolean isCharger()
}

class MyGame.GameObject.Items.Equipment.NeuroAmplifier {
- ItemRarity itemRarity
+ String getName()
+ String getDescription()
+ void applyBuff(World)
+ void updateEffect(double,World,Player)
+ ItemRarity getItemRarity()
+ void setItemRarity(ItemRarity)
}


class MyGame.GameObject.Weapon.Cores.OverClockCore {
+ String[] getWeaponStat()
+ void coreUpgrade(World,double)
+ void playerAttack(World)
+ String getName()
}

abstract class MyGame.GameObject.Weapon.Weapon {
# double cooldown
# double timer
# double activeDuration
# double activeTimer
# boolean hasActiveTimer
# boolean attackWhileJumping
# WeaponType type
# int level
# Rarity rarity
# int maxLevel
# double amount
# AmountType amountType
# double allBonus
# boolean isCore
# double bonusDamage
# double bonusAttackSpeed
# double bonusCritRate
# double bonusCritDmg
# double bonusSize
# double bonusProjCount
+ void update(double,World)
+ void coreUpgrade(World,double)
+ void applyCoreEffect(Weapon,double)
+ String[] getWeaponStat()
+ void addBonusDamage(double)
+ void addBonusAttackSpeed(double)
+ void addBonusCritRate(double)
+ void addBonusCritDmg(double)
+ void addBonusSize(double)
+ void addBonusProjCount(double)
# {abstract}void playerAttack(World)
+ {abstract}String getName()
+ void draw(javafx.scene.canvas.GraphicsContext,double,double,double,double,double,GameEngine)
+ double getCooldown()
+ void setCooldown(double)
+ double getTimer()
+ void setTimer(double)
+ double getActiveDuration()
+ void setActiveDuration(double)
+ double getActiveTimer()
+ void setActiveTimer(double)
+ boolean isHasActiveTimer()
+ void setHasActiveTimer(boolean)
+ boolean isAttackWhileJumping()
+ void setAttackWhileJumping(boolean)
+ int getLevel()
+ void setLevel(int)
+ Rarity getRarity()
+ void setRarity(Rarity)
+ WeaponType getType()
+ void setType(WeaponType)
+ double getBonusDamage()
+ void setBonusDamage(double)
+ double getBonusAttackSpeed()
+ void setBonusAttackSpeed(double)
+ double getBonusCritRate()
+ void setBonusCritRate(double)
+ double getBonusCritDmg()
+ void setBonusCritDmg(double)
+ double getBonusSize()
+ void setBonusSize(double)
+ double getBonusProjCount()
+ double getAmount()
+ void setAmount(double)
+ void setBonusProjCount(double)
+ AmountType getAmountType()
+ void setAmountType(AmountType)
+ boolean isCore()
+ int getMaxLevel()
+ void setMaxLevel(int)
+ void setCore(boolean)
+ double getAllBonus()
+ void setAllBonus(double)
}


enum MyGame.GameObject.Weapon.AmountType {
+  Multiplier
+  Amount
}

class MyGame.GameObject.Weapon.Cores.OverHeatCore {
+ String[] getWeaponStat()
+ void coreUpgrade(World,double)
+ void applyCoreEffect(Weapon,double)
+ void playerAttack(World)
+ String getName()
}

class MyGame.GameObject.Items.Equipment.EngineOverload {
- ItemRarity itemRarity
+ String getName()
+ String getDescription()
+ void applyBuff(World)
+ void updateEffect(double,World,Player)
+ ItemRarity getItemRarity()
+ void setItemRarity(ItemRarity)
}


class MyGame.GameObject.Weapon.Cores.SurgeCore {
+ String[] getWeaponStat()
+ void coreUpgrade(World,double)
+ void playerAttack(World)
+ String getName()
}

abstract class MyGame.GameObject.GameObject {
# double posX
# double posY
# double hitbox
+ void hitboxContactPushOut(double,double)
+ boolean checkCollision(GameObject)
+ void push(GameObject)
# void pushObject(GameObject,double,double)
# {abstract}void update(double)
+ double getPosY()
+ void setPosY(double)
+ double getPosX()
+ void setPosX(double)
+ double getHitbox()
+ void setHitbox(double)
}


class MyGame.GameObject.Obstacle {
- double width
- double height
+ void draw(GraphicsContext,double,double,double,double,double,GameEngine)
+ void update(double)
+ double getWidth()
+ void setWidth(double)
+ double getHeight()
+ void setHeight(double)
}


class MyGame.GameObject.Weapon.Cores.EntropyCore {
+ String[] getWeaponStat()
+ void coreUpgrade(World,double)
+ void playerAttack(World)
+ String getName()
}

class MyGame.GameObject.Skill.CrossSlash {
- double posX
- double angle
- double timer
- double MAX_TIMER
- List<Enemy> hitEnemies
- int currentFrame
- double animationTimer
+ void update(double)
+ void updateSkill(double,World)
+ void draw(javafx.scene.canvas.GraphicsContext,double,double,double,double,double,GameEngine)
+ boolean isFinished()
+ boolean isFade()
+ double opacity()
+ double getPosX()
+ void setPosX(double)
+ double getPosY()
+ void setPosY(double)
+ double getAngle()
+ void setAngle(double)
+ double getTimer()
+ void setTimer(double)
+ double getMAX_TIMER()
+ List<Enemy> getHitEnemies()
+ int getCurrentFrame()
+ void setCurrentFrame(int)
+ double getAnimationTimer()
+ void setAnimationTimer(double)
+ void setHitEnemies(List<Enemy>)
}


class MyGame.GameObject.Weapon.Sword {
- int currentFrame
- double animationTimer
+ boolean isAttacking()
+ String[] getWeaponStat()
+ void update(double,World)
+ void playerAttack(World)
+ int getCurrentFrame()
+ void setCurrentFrame(int)
+ double getAnimationTimer()
+ void setAnimationTimer(double)
+ String getName()
+ void draw(javafx.scene.canvas.GraphicsContext,double,double,double,double,double,GameEngine)
}


class MyGame.GameObject.Weapon.Cores.PlasmaCore {
+ String[] getWeaponStat()
+ void coreUpgrade(World,double)
+ void applyCoreEffect(Weapon,double)
+ void playerAttack(World)
+ String getName()
}

class MyGame.GameObject.Skill.JumpingSlash {
- double PosX
- double PosY
- double PosZ
- Player player
- List<Enemy> enemyList
- double timer
- double MAX_TIMER
- int currentFrame
- double animationTimer
+ void update(double)
+ void updateSkill(double,World)
+ void draw(javafx.scene.canvas.GraphicsContext,double,double,double,double,double,GameEngine)
+ boolean isFinished()
+ boolean fade()
+ double opacity()
+ Player getPlayer()
+ void setPlayer(Player)
+ List<Enemy> getEnemyList()
+ void setEnemyList(List<Enemy>)
+ double getTimer()
+ void setTimer(double)
+ double getMAX_TIMER()
+ double getPosX()
+ void setPosX(double)
+ double getPosY()
+ void setPosY(double)
+ double getPosZ()
+ int getCurrentFrame()
+ void setCurrentFrame(int)
+ double getAnimationTimer()
+ void setAnimationTimer(double)
+ void setPosZ(double)
}


class MyGame.GameObject.Items.Collectable.Chest {
+ void update(double)
+ void onCollect(Player,World)
+ void draw(GraphicsContext,double,double,double,double,double,GameEngine)
}

class MyGame.GameObject.Projectile.Rock {
- int pierceCount
- boolean isBroken
- double spawnTimer
- double spawnDuration
- double currentRelativeAngle
- double targetRelativeAngle
- int currentFrame
- double animationTimer
+ void update(double,World)
# void update(double)
+ void updateProj(double,World)
+ boolean isDone()
+ double spawn()
+ boolean isBroken()
+ void hitEnemy()
+ void draw(javafx.scene.canvas.GraphicsContext,double,double,double,double,double,GameEngine)
+ String type()
+ int getPierceCount()
+ void setPierceCount(int)
+ double getSpawnTimer()
+ void setSpawnTimer(double)
+ double getSpawnDuration()
+ void setSpawnDuration(double)
+ void setBroken(boolean)
+ double getCurrentRelativeAngle()
+ void setCurrentRelativeAngle(double)
+ double getTargetRelativeAngle()
+ void setTargetRelativeAngle(double)
+ int getCurrentFrame()
+ void setCurrentFrame(int)
+ double getAnimationTimer()
+ void setAnimationTimer(double)
}


class MyGame.GameObject.Weapon.Bow {
- double amount
+ String[] getWeaponStat()
+ void playerAttack(World)
+ String getName()
+ double getAmount()
+ void setAmount(double)
}


class MyGame.GameObject.Items.Equipment.SoulHarvester {
- ItemRarity itemRarity
+ String getName()
+ String getDescription()
+ void applyBuff(World)
+ void updateEffect(double,World,Player)
+ ItemRarity getItemRarity()
+ void setItemRarity(ItemRarity)
}


class MyGame.GameObject.Items.PowerUp.Steak {
- int healAmount
- ItemRarity itemRarity
+ String getName()
+ String getDescription()
+ void applyBuff(World)
+ void updateEffect(double,World,Player)
+ void update(double)
+ void onCollect(Player,World)
+ int getHealAmount()
+ void setHealAmount(int)
+ ItemRarity getItemRarity()
+ void setItemRarity(ItemRarity)
+ void draw(GraphicsContext,double,double,double,double,double,GameEngine)
}


class MyGame.GameObject.DamageText {
- double posX
- double posY
- String text
- double timer
- double smoothMultiply
- double MAX_TIMER
- boolean isCrit
+ double getDamageTextOpacity()
+ boolean isFade()
+ void draw(javafx.scene.canvas.GraphicsContext,double,double,double,double,double,GameEngine)
+ void update(double)
+ double getPosX()
+ void setPosX(double)
+ double getPosY()
+ void setPosY(double)
+ String getText()
+ void setText(String)
+ double getTimer()
+ void setTimer(double)
+ boolean isCrit()
+ void setCrit(boolean)
+ double getSmoothMultiply()
+ void setSmoothMultiply(double)
+ double getMAX_TIMER()
}


class MyGame.GameObject.Weapon.BoomerangWeapon {
+ String[] getWeaponStat()
+ void playerAttack(World)
+ String getName()
}

class MyGame.GameObject.Weapon.Cores.ChaosCore {
+ String[] getWeaponStat()
+ void coreUpgrade(World,double)
+ void playerAttack(World)
+ String getName()
}

class MyGame.GameObject.Player.Player {
- double MAP_LIMIT
- double MAX_SPEED
- double ACCELERATION
- double FRICTION
- double GRAVITY
- double JUMP_SPEED
- double timer
- double velocityX
- double velocityY
- double directionToX
- double directionToY
- double faceToX
- double faceToY
- double mouseFaceToX
- double mouseFaceToY
- double currentAngle
- double posZ
- double velocityZ
- boolean isJumping
- double jumpTimer
- double JUMP_COOLDOWN
- double DASH_COOLDOWN
- double DASH_DURATION
- double DASH_SPEED
- double smoothDash
- double dashTimer
- double dashCooldown
- double maxStamina
- double currentStamina
- double staminaTimer
- double maxHealth
- double currentHealth
- int experience
- int expToLevel
- int pendingLevelup
- int playerLevel
- int coin
- double magnetRadius
- boolean shielded
- int enemiesKilled
- double speedMultiplier
- double expMultiplier
- double coinMultiplier
- double luck
- double currentOverHeal
- double maxOverHeal
- double lifeSteal
- double regeneration
- double regenerationTimer
- double slashMaxCooldown
- double slashCooldown
- double slashCooldownMultiplier
- boolean isJumpingSlashing
- boolean canJumpingSlashOnce
- double crossSlashCooldown
- double ultimateCooldown
- double statDamage
- double statAtkSpeed
- double statCritDamage
- double statCritRate
- double statProjCount
- double statSize
- double dodgeChance
- boolean immuneToSlow
- double skillStaminaMultiplier
- double dashDamageReduction
- double instantKillChance
- int maxItemSlot
- boolean hasDeepestVoid
- List<double[]> pendingBlackHoles
- boolean hasFinalWeapon
- int currentFrame
- double animationTimer
- int checkSetFrame
- MovementState currentMovementState
- double flashTimer
- double gameStartTimer
+ void setFaceTo(double,double,double)
+ void update(double)
+ void update(double,World)
+ void updateAnimation(double)
+ void draw(javafx.scene.canvas.GraphicsContext,double,double,double,double,double,GameEngine)
# void pushObject(GameObject,double,double)
+ void setVelocity(double,double)
+ double updateVelocity(double,double,double)
+ void dash()
+ void dash(double,double)
+ void stamina()
+ void regeneration()
+ void jump()
+ double staminaRatio()
+ double healthRatio()
+ double overHealRatio()
+ double healthOverHealRatio()
+ double slashCooldownRatio()
+ void addExperience(int)
+ void claimLevelUp()
+ void coin(int)
+ double getExpRatio()
+ void addKill()
+ void heal(int)
+ void addOverHealing(int)
+ void addLifeSteal(double)
+ void addRegeneration(int)
+ boolean hasMaxOverHeal()
+ boolean hasCurrentHeal()
+ void addSpeedMultiplier(double)
+ void addExpMultiplier(double)
+ void addCoinMultiplier(double)
+ double dashCooldownRatio()
+ double jumpCooldownRatio()
+ boolean canSlash()
+ boolean isJumpingSlashing()
+ void resetSlashCooldown()
+ double crossSlashCooldownRatio()
+ void triggerJumpingDashAttack()
+ double ultimateCooldownRatio()
+ double getVelocityY()
+ void setVelocityY(double)
+ double getVelocityX()
+ void setVelocityX(double)
+ double getMouseFaceToX()
+ void setMouseFaceToX(double)
+ double getMouseFaceToY()
+ void setMouseFaceToY(double)
+ double getCoinMultiplier()
+ void setCoinMultiplier(double)
+ double getMaxHealth()
+ void setMaxHealth(double)
+ double getCurrentHealth()
+ void setCurrentHealth(double)
+ double getTimer()
+ void setTimer(double)
+ double getFaceToX()
+ double getFaceToY()
+ double getMAX_SPEED()
+ int getPlayerLevel()
+ int getEnemiesKilled()
+ double getSpeedMultiplier()
+ double getExpMultiplier()
+ double getCurrentOverHeal()
+ void setCurrentOverHeal(double)
+ double getMaxOverHeal()
+ void setMaxOverHeal(double)
+ double getLifeSteal()
+ double getRegeneration()
+ double getMAP_LIMIT()
+ double getDashTimer()
+ double getMaxStamina()
+ void setMaxStamina(double)
+ double getCurrentStamina()
+ void setCurrentStamina(double)
+ double getPosZ()
+ void setPosZ(double)
+ void setVelocityZ(double)
+ boolean isJumping()
+ void setJumping(boolean)
+ double getSlashMaxCooldown()
+ double getSlashCooldown()
+ void setSlashCooldown(double)
+ int getCoin()
+ void setCoin(int)
+ boolean isCanJumpingSlashOnce()
+ void setCanJumpingSlashOnce(boolean)
+ int getPendingLevelup()
+ double getMagnetRadius()
+ void setMagnetRadius(double)
+ double getLuck()
+ void setLuck(double)
+ void setSlashMaxCooldown(double)
+ double getSlashCooldownMultiplier()
+ void setSlashCooldownMultiplier(double)
+ void setPendingLevelup(int)
+ double getStatDamage()
+ void setStatDamage(double)
+ double getStatAtkSpeed()
+ void setStatAtkSpeed(double)
+ double getStatCritDamage()
+ void setStatCritDamage(double)
+ double getStatCritRate()
+ void setStatCritRate(double)
+ double getStatProjCount()
+ void setStatProjCount(double)
+ double getStatSize()
+ void setFRICTION(double)
+ void setStatSize(double)
+ double getCrossSlashCooldown()
+ double getDodgeChance()
+ void setDodgeChance(double)
+ boolean isImmuneToSlow()
+ void setImmuneToSlow(boolean)
+ double getSkillStaminaMultiplier()
+ void setSkillStaminaMultiplier(double)
+ double getDashDamageReduction()
+ void setDashDamageReduction(double)
+ double getInstantKillChance()
+ void setInstantKillChance(double)
+ int getMaxItemSlot()
+ void setMaxItemSlot(int)
+ boolean isHasDeepestVoid()
+ void setHasDeepestVoid(boolean)
+ List<double[]> getPendingBlackHoles()
+ boolean isHasFinalWeapon()
+ void setHasFinalWeapon(boolean)
+ void setCrossSlashCooldown(double)
+ boolean isShielded()
+ double getUltimateCooldown()
+ void setUltimateCooldown(double)
+ int getCurrentFrame()
+ int getCheckSetFrame()
+ void setShielded(boolean)
+ MovementState getCurrentMovementState()
+ double getGameStartTimer()
+ double getFlashTimer()
+ void setFlashTimer(double)
+ void setCurrentMovementState(MovementState)
}


enum MyGame.GameObject.Player.MovementState {
+  Idle
+  Run
+  Dash
+  JumpUp
+  JumpDown
+  Skill
+  SkillJump
+  Skill2
+  UltimateUp
+  UltimateDown
+ int checkSetFrame
+ double frameDuration
+ int maxFrames
}

class MyGame.GameObject.Weapon.LightningWeapon {
+ String[] getWeaponStat()
+ void update(double,World)
+ void playerAttack(World)
+ String getName()
}

class MyGame.GameObject.Weapon.Cores.MatrixCore {
+ String[] getWeaponStat()
+ void coreUpgrade(World,double)
+ void applyCoreEffect(Weapon,double)
+ void playerAttack(World)
+ String getName()
}

class MyGame.GameObject.Projectile.Arrow {
- double speed
- double velocityX
- double velocityY
- double faceToX
- double faceToY
- double angle
- int pierceCount
- double fadeTimer
- List<Enemy> hitEnemies
- int currentFrame
- double animationTimer
+ void setFaceTo(double,double)
+ void checkBound(double,double,double,double)
+ boolean canPierce()
+ boolean hitEnemy(Enemy)
+ void update(double)
+ void updateProj(double,World)
+ boolean isDone()
+ void updateAnimation(double)
+ boolean isFade()
+ double opacity()
+ void draw(javafx.scene.canvas.GraphicsContext,double,double,double,double,double,GameEngine)
+ double getFaceToY()
+ void setFaceToY(double)
+ double getFaceToX()
+ void setFaceToX(double)
+ double getSpeed()
+ void setSpeed(double)
+ double getVelocityX()
+ void setVelocityX(double)
+ double getVelocityY()
+ void setVelocityY(double)
+ int getPierceCount()
+ void setPierceCount(int)
+ double getFadeTimer()
+ void setFadeTimer(double)
+ List<Enemy> getHitEnemies()
+ double getAngle()
+ void setAngle(double)
+ void setHitEnemies(List<Enemy>)
+ int getCurrentFrame()
+ void setCurrentFrame(int)
+ double getAnimationTimer()
+ void setAnimationTimer(double)
}


class MyGame.GameObject.Enemies.Boss {
- BossState currentState
- double cooldown
- double maxCooldown
- double stateTimer
- double maxStateTimer
- double telegraphTimer
- double attackTargetPosX
- double attackTargetPosY
- double attackAngle
- double dashTimer
- double dashToX
- double dashToY
- double dashSpeed
- double gridRotationAngle
- int remainingCircles
+ void update(double,Player,double)
+ void telegraphAttack(Player)
+ void attack(double,Player,double)
+ void draw(javafx.scene.canvas.GraphicsContext,double,double,double,double,double,GameEngine)
+ boolean isBoss()
+ BossState getCurrentState()
+ void setCurrentState(BossState)
+ double getCooldown()
+ void setCooldown(double)
+ double getTelegraphTimer()
+ void setTelegraphTimer(double)
+ double getAttackTargetPosX()
+ void setAttackTargetPosX(double)
+ double getAttackTargetPosY()
+ void setAttackTargetPosY(double)
+ double getAttackAngle()
+ double getDashTimer()
+ void setDashTimer(double)
+ double getDashToX()
+ void setDashToX(double)
+ double getDashToY()
+ void setDashToY(double)
+ double getDashSpeed()
+ void setDashSpeed(double)
+ double getMaxCooldown()
+ void setMaxCooldown(double)
+ void setAttackAngle(double)
+ double getStateTimer()
+ double getMaxStateTimer()
+ void setMaxStateTimer(double)
+ double getGridRotationAngle()
+ void setGridRotationAngle(double)
+ void setStateTimer(double)
}


enum MyGame.GameObject.Enemies.BossState {
+  ACTIVE
+  DASHING
+  TELEGRAPH_CIRCLE
+  TELEGRAPH_ARC
+  TELEGRAPH_AIR
+  TELEGRAPH_LINE
}

class MyGame.GameObject.Projectile.Boomerang {
- double speed
- double velocityX
- double velocityY
- double faceToX
- double faceToY
- double timer
- double durationTimer
- List<Enemy> hitEnemies
- double spinningAngle
- double smoothTurning
+ void setFaceToForBoomerang(double,double)
+ double opacity()
+ boolean isBroken()
+ boolean hitEnemy(Enemy)
+ void update(double)
+ void updateProj(double,World)
+ boolean isDone()
+ void draw(javafx.scene.canvas.GraphicsContext,double,double,double,double,double,GameEngine)
+ double getFaceToY()
+ void setFaceToY(double)
+ double getFaceToX()
+ void setFaceToX(double)
+ double getSpeed()
+ void setSpeed(double)
+ double getVelocityX()
+ void setVelocityX(double)
+ double getVelocityY()
+ void setVelocityY(double)
+ double getTimer()
+ void setTimer(double)
+ double getDurationTimer()
+ List<Enemy> getHitEnemies()
+ void setHitEnemies(List<Enemy>)
+ double getSpinningAngle()
+ void setSpinningAngle(double)
}


class MyGame.GameObject.Items.Collectable.Experience {
- int expValue
- int expType
- {static} List<Experience> pool
+ {static} Experience create(double,double)
+ {static} void release(Experience)
+ void init(double,double)
+ void update(double)
+ boolean checkCollision(GameObject)
+ void updateCollectible(Player,World,double)
+ void draw(GraphicsContext,double,double,double,double,double,GameEngine)
+ void onCollect(Player,World)
+ int getExpValue()
+ void setExpValue(int)
+ int getExpType()
+ void setExpType(int)
}


class MyGame.GameObject.Weapon.Cores.SiphonCore {
+ String[] getWeaponStat()
+ void coreUpgrade(World,double)
+ void playerAttack(World)
+ String getName()
}

class MyGame.GameObject.Weapon.Cores.DynamoCore {
+ String[] getWeaponStat()
+ void coreUpgrade(World,double)
+ void playerAttack(World)
+ String getName()
}

class MyGame.GameObject.Items.Equipment.HexEditor {
- double hexEditorTimer
- ItemRarity itemRarity
+ String getName()
+ String getDescription()
+ void applyBuff(World)
+ void updateEffect(double,World,Player)
+ ItemRarity getItemRarity()
+ void setItemRarity(ItemRarity)
}


class MyGame.GameObject.Weapon.Cores.BiocatalystCore {
+ String[] getWeaponStat()
+ void coreUpgrade(World,double)
+ void playerAttack(World)
+ String getName()
}

class MyGame.GameObject.Weapon.Cores.CryptoCore {
+ String[] getWeaponStat()
+ void coreUpgrade(World,double)
+ void playerAttack(World)
+ String getName()
}

class MyGame.GameObject.Items.Equipment.MagnetRing {
- ItemRarity itemRarity
+ String getName()
+ String getDescription()
+ void applyBuff(World)
+ void updateEffect(double,World,Player)
+ ItemRarity getItemRarity()
+ void setItemRarity(ItemRarity)
}


class MyGame.GameObject.Skill.Slash {
- double posX
- double posY
- double posZ
- double angle
- double timer
- double MAX_TIMER
- boolean slashHit
- int currentFrame
- double animationTimer
+ void update(double)
+ void updateSkill(double,World)
+ void draw(GraphicsContext,double,double,double,double,double,GameEngine)
+ boolean isFinished()
+ boolean fade()
+ double opacity()
+ double getPosX()
+ void setPosX(double)
+ double getPosY()
+ void setPosY(double)
+ double getAngle()
+ void setAngle(double)
+ double getTimer()
+ void setTimer(double)
+ double getMAX_TIMER()
+ boolean isSlashHit()
+ void setSlashHit(boolean)
+ double getPosZ()
+ int getCurrentFrame()
+ void setCurrentFrame(int)
+ double getAnimationTimer()
+ void setAnimationTimer(double)
+ void setPosZ(double)
}


class MyGame.GameObject.Items.Equipment.MutatedBrain {
- double mutatedBrainTimer
- ItemRarity itemRarity
+ String getName()
+ String getDescription()
+ void applyBuff(World)
+ void updateEffect(double,World,Player)
+ ItemRarity getItemRarity()
+ void setItemRarity(ItemRarity)
}


class MyGame.GameObject.Items.Equipment.ServoMotor {
- ItemRarity itemRarity
+ String getName()
+ String getDescription()
+ void applyBuff(World)
+ void updateEffect(double,World,Player)
+ ItemRarity getItemRarity()
+ void setItemRarity(ItemRarity)
}


class MyGame.GameObject.Items.Equipment.TitaniumArmor {
- ItemRarity itemRarity
+ String getName()
+ String getDescription()
+ void applyBuff(World)
+ void updateEffect(double,World,Player)
+ ItemRarity getItemRarity()
+ void setItemRarity(ItemRarity)
}


class MyGame.GameObject.Items.Equipment.TungstenPlating {
- ItemRarity itemRarity
+ String getName()
+ String getDescription()
+ void applyBuff(World)
+ void updateEffect(double,World,Player)
+ ItemRarity getItemRarity()
+ void setItemRarity(ItemRarity)
}


class MyGame.GameObject.Items.Equipment.ParasiticGas {
- double parasiticGasTimer
- ItemRarity itemRarity
+ String getName()
+ String getDescription()
+ void applyBuff(World)
+ void updateEffect(double,World,Player)
+ ItemRarity getItemRarity()
+ void setItemRarity(ItemRarity)
}


class MyGame.GameObject.Weapon.Cores.FractalCore {
+ String[] getWeaponStat()
+ void coreUpgrade(World,double)
+ void applyCoreEffect(Weapon,double)
+ void playerAttack(World)
+ String getName()
}

class MyGame.GameObject.Weapon.Cores.SomaticCore {
+ String[] getWeaponStat()
+ void coreUpgrade(World,double)
+ void playerAttack(World)
+ String getName()
}

class MyGame.GameObject.Items.Equipment.DataFragment {
- ItemRarity itemRarity
+ String getName()
+ String getDescription()
+ void applyBuff(World)
+ void updateEffect(double,World,Player)
+ ItemRarity getItemRarity()
+ void setItemRarity(ItemRarity)
}


class MyGame.GameObject.Weapon.Cores.DataCore {
+ String[] getWeaponStat()
+ void coreUpgrade(World,double)
+ void playerAttack(World)
+ String getName()
}

class MyGame.GameObject.Items.Equipment.FinalWeapon {
- double finalWeaponTimer
- ItemRarity itemRarity
+ String getName()
+ String getDescription()
+ void applyBuff(World)
+ void updateEffect(double,World,Player)
+ ItemRarity getItemRarity()
+ void setItemRarity(ItemRarity)
}


class MyGame.GameObject.Weapon.OrbitRock {
- double RADIUS
- double rockAmount
- int rockCount
- double angle
- double respawnTime
- double timer
- double opacity
- List<Rock> rocks
+ void update(double,World)
+ String[] getWeaponStat()
+ void playerAttack(World)
+ String getName()
+ double getRADIUS()
+ double getRockAmount()
+ void setRockAmount(double)
+ double getAngle()
+ void setAngle(double)
+ List<Rock> getRocks()
+ void setRocks(List<Rock>)
+ double getRockCount()
+ void setRockCount(double)
+ double getRespawnTime()
+ double getTimer()
+ void setTimer(double)
+ double getOpacity()
+ void setRockCount(int)
+ void setRespawnTime(double)
+ void setOpacity(double)
}


class MyGame.GameObject.Weapon.Cores.ResonanceCore {
+ String[] getWeaponStat()
+ void coreUpgrade(World,double)
+ void applyCoreEffect(Weapon,double)
+ void playerAttack(World)
+ String getName()
}

class MyGame.GameObject.Items.PowerUp.EnergyDrink {
- int drinkType
+ void update(double)
+ void onCollect(Player,World)
+ int getDrinkType()
+ void setDrinkType(int)
+ void draw(GraphicsContext,double,double,double,double,double,GameEngine)
}


class MyGame.GameObject.Items.Equipment.PhantomDrive {
- ItemRarity itemRarity
+ String getName()
+ String getDescription()
+ void applyBuff(World)
+ void updateEffect(double,World,Player)
+ ItemRarity getItemRarity()
+ void setItemRarity(ItemRarity)
}


class MyGame.GameObject.Weapon.Aura {
- double radius
- double timer
- double TICK_RATE
- int currentFrame
- double animationTimer
+ void update(double,World)
+ boolean inArea(World)
+ String[] getWeaponStat()
+ void playerAttack(World)
+ double getTICK_RATE()
+ double getTimer()
+ void setTimer(double)
+ double getRadius()
+ void setRadius(double)
+ int getCurrentFrame()
+ void setCurrentFrame(int)
+ double getAnimationTimer()
+ void setAnimationTimer(double)
+ String getName()
+ void draw(javafx.scene.canvas.GraphicsContext,double,double,double,double,double,GameEngine)
}


class MyGame.GameObject.Items.Equipment.Doomsday {
- double doomsdayTimer
- int doomsdayLastStat
- ItemRarity itemRarity
+ String getName()
+ String getDescription()
+ void applyBuff(World)
+ void updateEffect(double,World,Player)
+ ItemRarity getItemRarity()
+ void setItemRarity(ItemRarity)
}


class MyGame.GameObject.Items.ItemManager {
+ {static} Item openingChest(World)
+ {static} ItemRarity chestGachaRarity(Player)
}

abstract class MyGame.GameObject.Projectile.Projectile {
+ {abstract}void updateProj(double,World)
+ {abstract}boolean isDone()
+ {abstract}void draw(javafx.scene.canvas.GraphicsContext,double,double,double,double,double,GameEngine)
}

class MyGame.GameObject.Weapon.Cores.KineticCore {
+ String[] getWeaponStat()
+ void coreUpgrade(World,double)
+ void playerAttack(World)
+ String getName()
}

class MyGame.GameObject.Player.PlayerTrail {
+ double worldPosX
+ double worldPosY
+ double sourcePosX
+ double sourcePosY
+ double frameWidth
+ double frameHeight
+ boolean isFlipped
+ double opacity
+ double rotation
}

class MyGame.GameObject.Projectile.LightningEffect {
- List<double[]> strikePoints
- double timer
- double MAX_TIMER
- int currentFrame
- int currentFrame_2
- double animationTimer
- double animationTimer2
+ void update(double)
+ void updateProj(double,World)
+ boolean isDone()
+ boolean isFade()
+ double opacity()
+ void draw(javafx.scene.canvas.GraphicsContext,double,double,double,double,double,GameEngine)
+ void setStrikePoints(List<double[]>)
+ double getTimer()
+ void setTimer(double)
+ double getMAX_TIMER()
+ int getCurrentFrame()
+ void setCurrentFrame(int)
+ double getAnimationTimer()
+ void setAnimationTimer(double)
+ List<double[]> getStrikePoints()
+ int getCurrentFrame_2()
+ void setCurrentFrame_2(int)
}


class MyGame.GameObject.Items.Equipment.AdrenalSyringe {
- double adrenalTimer
- boolean adrenalActive
- ItemRarity itemRarity
+ String getName()
+ String getDescription()
+ void applyBuff(World)
+ void updateEffect(double,World,Player)
+ ItemRarity getItemRarity()
+ void setItemRarity(ItemRarity)
}




MyGame.Interface.Item <|.. MyGame.GameObject.Items.Equipment.MagneticRepulsor
MyGame.GameObject.Weapon.Weapon <|-- MyGame.GameObject.Weapon.Cores.VectorCore
MyGame.GameObject.GameObject <|-- MyGame.GameObject.Projectile.Explosion
MyGame.Interface.Item <|.. MyGame.GameObject.Items.Equipment.NecroticHeart
MyGame.Interface.ActiveSkill <|.. MyGame.GameObject.Skill.Ultimate
MyGame.Interface.Item <|.. MyGame.GameObject.Items.Equipment.DeepestVoid
MyGame.GameObject.GameObject <|-- MyGame.GameObject.Enemies.Enemy
MyGame.GameObject.Enemies.Enemy <|-- MyGame.GameObject.Enemies.Charger
MyGame.Interface.Item <|.. MyGame.GameObject.Items.Equipment.NeuroAmplifier
MyGame.GameObject.Weapon.Weapon <|-- MyGame.GameObject.Weapon.Cores.OverClockCore
MyGame.Interface.Renderable <|.. MyGame.GameObject.Weapon.Weapon
MyGame.GameObject.Weapon.Weapon <|-- MyGame.GameObject.Weapon.Cores.OverHeatCore
MyGame.Interface.Item <|.. MyGame.GameObject.Items.Equipment.EngineOverload
MyGame.GameObject.Weapon.Weapon <|-- MyGame.GameObject.Weapon.Cores.SurgeCore
MyGame.Interface.Renderable <|.. MyGame.GameObject.GameObject
MyGame.GameObject.GameObject <|-- MyGame.GameObject.Obstacle
MyGame.GameObject.Weapon.Weapon <|-- MyGame.GameObject.Weapon.Cores.EntropyCore
MyGame.Interface.ActiveSkill <|.. MyGame.GameObject.Skill.CrossSlash
MyGame.GameObject.Weapon.Weapon <|-- MyGame.GameObject.Weapon.Sword
MyGame.GameObject.Weapon.Weapon <|-- MyGame.GameObject.Weapon.Cores.PlasmaCore
MyGame.Interface.ActiveSkill <|.. MyGame.GameObject.Skill.JumpingSlash
MyGame.Interface.Collectable <|.. MyGame.GameObject.Items.Collectable.Chest
MyGame.Interface.Renderable <|.. MyGame.GameObject.Items.Collectable.Chest
MyGame.GameObject.GameObject <|-- MyGame.GameObject.Items.Collectable.Chest
MyGame.GameObject.Projectile.Projectile <|-- MyGame.GameObject.Projectile.Rock
MyGame.GameObject.Weapon.Weapon <|-- MyGame.GameObject.Weapon.Bow
MyGame.Interface.Item <|.. MyGame.GameObject.Items.Equipment.SoulHarvester
MyGame.Interface.Item <|.. MyGame.GameObject.Items.PowerUp.Steak
MyGame.Interface.Collectable <|.. MyGame.GameObject.Items.PowerUp.Steak
MyGame.Interface.Renderable <|.. MyGame.GameObject.Items.PowerUp.Steak
MyGame.GameObject.GameObject <|-- MyGame.GameObject.Items.PowerUp.Steak
MyGame.GameObject.GameObject <|-- MyGame.GameObject.DamageText
MyGame.GameObject.Weapon.Weapon <|-- MyGame.GameObject.Weapon.BoomerangWeapon
MyGame.GameObject.Weapon.Weapon <|-- MyGame.GameObject.Weapon.Cores.ChaosCore
MyGame.GameObject.GameObject <|-- MyGame.GameObject.Player.Player
MyGame.GameObject.Weapon.Weapon <|-- MyGame.GameObject.Weapon.LightningWeapon
MyGame.GameObject.Weapon.Weapon <|-- MyGame.GameObject.Weapon.Cores.MatrixCore
MyGame.GameObject.Projectile.Projectile <|-- MyGame.GameObject.Projectile.Arrow
MyGame.GameObject.Enemies.Enemy <|-- MyGame.GameObject.Enemies.Boss
MyGame.GameObject.Projectile.Projectile <|-- MyGame.GameObject.Projectile.Boomerang
MyGame.Interface.Collectable <|.. MyGame.GameObject.Items.Collectable.Experience
MyGame.Interface.Renderable <|.. MyGame.GameObject.Items.Collectable.Experience
MyGame.GameObject.GameObject <|-- MyGame.GameObject.Items.Collectable.Experience
MyGame.GameObject.Weapon.Weapon <|-- MyGame.GameObject.Weapon.Cores.SiphonCore
MyGame.GameObject.Weapon.Weapon <|-- MyGame.GameObject.Weapon.Cores.DynamoCore
MyGame.Interface.Item <|.. MyGame.GameObject.Items.Equipment.HexEditor
MyGame.GameObject.Weapon.Weapon <|-- MyGame.GameObject.Weapon.Cores.BiocatalystCore
MyGame.GameObject.Weapon.Weapon <|-- MyGame.GameObject.Weapon.Cores.CryptoCore
MyGame.Interface.Item <|.. MyGame.GameObject.Items.Equipment.MagnetRing
MyGame.Interface.ActiveSkill <|.. MyGame.GameObject.Skill.Slash
MyGame.Interface.Item <|.. MyGame.GameObject.Items.Equipment.MutatedBrain
MyGame.Interface.Item <|.. MyGame.GameObject.Items.Equipment.ServoMotor
MyGame.Interface.Item <|.. MyGame.GameObject.Items.Equipment.TitaniumArmor
MyGame.Interface.Item <|.. MyGame.GameObject.Items.Equipment.TungstenPlating
MyGame.Interface.Item <|.. MyGame.GameObject.Items.Equipment.ParasiticGas
MyGame.GameObject.Weapon.Weapon <|-- MyGame.GameObject.Weapon.Cores.FractalCore
MyGame.GameObject.Weapon.Weapon <|-- MyGame.GameObject.Weapon.Cores.SomaticCore
MyGame.Interface.Item <|.. MyGame.GameObject.Items.Equipment.DataFragment
MyGame.GameObject.Weapon.Weapon <|-- MyGame.GameObject.Weapon.Cores.DataCore
MyGame.Interface.Item <|.. MyGame.GameObject.Items.Equipment.FinalWeapon
MyGame.GameObject.Weapon.Weapon <|-- MyGame.GameObject.Weapon.OrbitRock
MyGame.GameObject.Weapon.Weapon <|-- MyGame.GameObject.Weapon.Cores.ResonanceCore
MyGame.Interface.Collectable <|.. MyGame.GameObject.Items.PowerUp.EnergyDrink
MyGame.Interface.Renderable <|.. MyGame.GameObject.Items.PowerUp.EnergyDrink
MyGame.GameObject.GameObject <|-- MyGame.GameObject.Items.PowerUp.EnergyDrink
MyGame.Interface.Item <|.. MyGame.GameObject.Items.Equipment.PhantomDrive
MyGame.GameObject.Weapon.Weapon <|-- MyGame.GameObject.Weapon.Aura
MyGame.Interface.Item <|.. MyGame.GameObject.Items.Equipment.Doomsday
MyGame.GameObject.GameObject <|-- MyGame.GameObject.Projectile.Projectile
MyGame.GameObject.Weapon.Weapon <|-- MyGame.GameObject.Weapon.Cores.KineticCore
MyGame.GameObject.Projectile.Projectile <|-- MyGame.GameObject.Projectile.LightningEffect
MyGame.Interface.Item <|.. MyGame.GameObject.Items.Equipment.AdrenalSyringe
@enduml